<svg width="450" height="265" viewBox="0 0 450 265" fill="none" xmlns="http://www.w3.org/2000/svg">
<path d="M349.884 128.017C349.954 129.535 350 131.057 350 132.604C350 205.719 271.65 265 175.002 265C78.3541 265 0 205.719 0 132.587C0 131.057 0.0457554 129.535 0.116468 128L349.884 128.017Z" fill="#E2E2E2" fill-opacity="0.6"/>
<path d="M449.913 128.626C449.963 129.693 450 130.764 450 131.839C450 183.27 391.517 224.963 319.375 224.963C247.233 224.963 188.75 183.27 188.75 131.839C188.75 130.764 188.783 129.693 188.837 128.626H449.913Z" fill="#EFEFEF" fill-opacity="0.6"/>
<path d="M0 127.85C0 113.27 34.7475 110.18 48.4814 110.18C76.3332 110.18 78.1772 93.58 101.304 93.58C121.636 93.58 131.979 110.72 150.909 110.72C191.534 110.72 200.581 62 240.102 62C280.314 62 278.259 112.86 315.676 112.86C334.702 112.86 449 116.6 449 127.86L0 127.85Z" fill="#EDEDED" fill-opacity="0.6"/>
<path fill-rule="evenodd" clip-rule="evenodd" d="M316.806 106.935C316.214 107.215 315.512 107.154 314.98 106.774L314.963 106.784L306.247 100.731C309.022 98.0596 312.503 96.2009 316.299 95.365C317.012 95.2073 317.734 95.0855 318.46 95L317.858 105.414L317.814 105.434C317.786 106.078 317.399 106.655 316.806 106.935ZM324.149 105.401C324.18 106.044 324.568 106.62 325.161 106.899C325.754 107.178 326.456 107.116 326.988 106.736L327.019 106.749L335.678 100.734C332.382 97.5712 328.117 95.5567 323.538 95.0005L324.14 105.398L324.149 105.401ZM330.938 111.562L338.851 104.623V104.624C341.274 108.485 342.345 113.015 341.902 117.527L331.652 114.634L331.643 114.592C331.009 114.421 330.522 113.922 330.375 113.293C330.229 112.665 330.447 112.009 330.942 111.584L330.938 111.562ZM329.816 120.622C329.953 120.616 330.091 120.627 330.226 120.653L330.244 120.631L340.795 122.378C339.237 126.667 336.265 130.325 332.348 132.774L328.253 123.083L328.266 123.066C327.888 122.204 328.27 121.204 329.132 120.796C329.345 120.694 329.578 120.635 329.816 120.622ZM312.097 120.665C312.92 120.678 313.627 121.24 313.81 122.026C313.895 122.387 313.86 122.764 313.711 123.103L313.742 123.141L309.689 132.736C305.799 130.298 302.839 126.669 301.269 122.414L311.727 120.675L311.745 120.696C311.861 120.674 311.979 120.664 312.097 120.665ZM322.569 125.789C322.258 125.221 321.653 124.866 320.994 124.867C320.336 124.868 319.731 125.224 319.421 125.793H319.413L314.27 134.905C317.952 136.133 321.911 136.333 325.703 135.481C326.406 135.324 327.093 135.136 327.763 134.917L322.608 125.789L322.569 125.789ZM310.333 114.643C310.969 114.473 311.457 113.974 311.604 113.345C311.751 112.716 311.532 112.058 311.035 111.635L311.044 111.593L303.087 104.621C300.659 108.492 299.617 113.045 300.126 117.56L310.325 114.677L310.333 114.643ZM320.997 119.089L318.062 117.706L317.334 114.61L319.365 112.132H322.625L324.65 114.614L323.924 117.709L320.997 119.089Z" fill="#326CE5"/>
<path fill-rule="evenodd" clip-rule="evenodd" d="M361.512 87.0501L369.846 123.198L369.845 123.195C370.051 124.109 370.052 125.057 369.847 125.97C369.786 126.25 369.706 126.525 369.608 126.794C369.374 127.448 369.033 128.059 368.6 128.602L345.974 156.708L345.263 157.592C344.825 158.129 344.302 158.592 343.714 158.961C343.487 159.106 343.25 159.237 343.007 159.353C342.844 159.431 342.676 159.496 342.507 159.56C342.29 159.642 342.07 159.712 341.846 159.771C341.534 159.855 341.216 159.915 340.895 159.952C340.671 159.977 340.446 159.99 340.22 159.991L303.147 160H302.784C302.229 159.996 301.678 159.92 301.143 159.774C300.491 159.602 299.869 159.332 299.298 158.973C298.847 158.686 298.433 158.344 298.067 157.954C298.054 157.94 298.041 157.927 298.028 157.913C297.929 157.81 297.831 157.707 297.741 157.596L274.396 128.612C274.265 128.447 274.144 128.278 274.03 128.103C273.766 127.696 273.55 127.259 273.387 126.801C273.291 126.533 273.213 126.259 273.152 125.981C272.949 125.067 272.949 124.119 273.154 123.205L281.475 87.0582C281.929 85.1644 283.209 83.5739 284.964 82.7247L318.691 66.6329C320.462 65.789 322.519 65.789 324.29 66.6329L358.023 82.7161C359.778 83.5658 361.058 85.1564 361.512 87.0501ZM335.192 138.07C335.063 137.807 334.951 137.535 334.856 137.257V137.257C340.4 133.974 344.541 128.771 346.493 122.637C346.782 122.683 347.069 122.734 347.356 122.788C347.664 122.507 348.069 122.356 348.486 122.369C349.691 122.599 350.871 122.945 352.008 123.403C352.598 123.671 353.202 123.904 353.819 124.102C353.913 124.126 354.033 124.15 354.151 124.174C354.216 124.187 354.281 124.199 354.34 124.212C354.354 124.216 354.366 124.223 354.38 124.227L354.409 124.23C355.14 124.471 355.944 124.277 356.485 123.731C357.025 123.184 357.21 122.379 356.96 121.652C356.71 120.925 356.07 120.403 355.307 120.302C355.245 120.288 355.173 120.27 355.098 120.251C354.967 120.219 354.827 120.184 354.719 120.164C354.077 120.076 353.431 120.024 352.784 120.009C351.56 119.929 350.348 119.729 349.163 119.414C348.798 119.208 348.497 118.906 348.293 118.54L347.478 118.303C348.349 111.945 346.852 105.489 343.272 100.159C343.375 100.067 343.522 99.9352 343.659 99.8133C343.801 99.6867 343.931 99.5704 343.988 99.5179C343.96 99.1025 344.096 98.6928 344.367 98.3762C345.297 97.5784 346.303 96.8729 347.37 96.2697C347.947 95.9765 348.507 95.6502 349.047 95.2923C349.137 95.226 349.249 95.1332 349.355 95.0461C349.403 95.0066 349.449 94.9682 349.492 94.9341C350.146 94.5176 350.505 93.7646 350.417 92.9946C350.329 92.2245 349.808 91.5723 349.076 91.3144C348.344 91.0565 347.529 91.2382 346.976 91.7824C346.94 91.8115 346.899 91.843 346.857 91.8757C346.743 91.9644 346.619 92.0613 346.529 92.1387C346.057 92.5823 345.612 93.0528 345.196 93.5479C344.37 94.4538 343.459 95.2773 342.474 96.0069C342.086 96.1644 341.662 96.2104 341.249 96.1397L340.481 96.6876C336.06 92.0547 330.106 89.1816 323.724 88.602C323.706 88.3361 323.682 87.8551 323.675 87.7055L323.675 87.7021C323.332 87.4649 323.095 87.1032 323.015 86.6942C322.973 85.4707 323.049 84.2459 323.244 83.0371C323.373 82.404 323.466 81.764 323.521 81.1202C323.525 81.0195 323.522 80.8912 323.52 80.7661C323.518 80.6895 323.517 80.6141 323.517 80.547C323.594 79.7781 323.227 79.0322 322.57 78.6239C321.913 78.2156 321.08 78.216 320.424 78.6249C319.767 79.0338 319.401 79.7801 319.479 80.5489C319.479 80.5579 319.48 80.5671 319.481 80.5764C319.482 80.5859 319.484 80.5956 319.484 80.6053C319.483 80.657 319.482 80.712 319.481 80.7678C319.478 80.8924 319.475 81.0204 319.479 81.1217C319.534 81.7655 319.626 82.4057 319.754 83.039C319.948 84.2476 320.023 85.4721 319.979 86.6952C319.865 87.0982 319.637 87.4601 319.324 87.7384L319.276 88.5906C318.048 88.6918 316.828 88.8791 315.626 89.1509C310.576 90.2903 305.982 92.911 302.435 96.6766C302.19 96.5072 301.947 96.3349 301.707 96.1598C301.307 96.2792 300.877 96.2376 300.508 96.0437C299.522 95.3154 298.611 94.4927 297.786 93.5875C297.37 93.0927 296.926 92.6222 296.456 92.1784C296.359 92.0952 296.22 91.9874 296.099 91.8926C296.067 91.8682 296.037 91.8446 296.009 91.8225C295.608 91.5001 295.115 91.3143 294.601 91.2923C293.982 91.2597 293.385 91.5237 292.993 92.0031C292.312 92.9615 292.533 94.2895 293.489 94.9752L293.519 94.9962C293.556 95.0254 293.594 95.0568 293.633 95.0889C293.738 95.1751 293.848 95.266 293.938 95.3325C294.476 95.69 295.035 96.0163 295.611 96.3098C296.678 96.9127 297.684 97.6182 298.614 98.4163C298.855 98.7587 298.996 99.1618 299.019 99.5799L299.667 100.156C296.097 105.504 294.63 111.981 295.547 118.343L294.701 118.589C294.481 118.941 294.185 119.24 293.834 119.463C292.65 119.778 291.438 119.977 290.216 120.056C289.567 120.071 288.92 120.123 288.278 120.212C288.17 120.233 288.031 120.267 287.9 120.299C287.844 120.312 287.789 120.325 287.739 120.337L287.721 120.342L287.692 120.349C286.929 120.449 286.289 120.972 286.039 121.698C285.789 122.425 285.973 123.23 286.513 123.777C287.054 124.324 287.858 124.518 288.589 124.278C288.599 124.277 288.609 124.276 288.62 124.275C288.628 124.273 288.636 124.269 288.644 124.266C288.649 124.264 288.653 124.263 288.658 124.261C288.705 124.251 288.756 124.24 288.808 124.229C288.939 124.202 289.077 124.173 289.181 124.144C289.797 123.948 290.402 123.717 290.992 123.452C292.129 122.994 293.307 122.648 294.511 122.418C294.929 122.443 295.331 122.584 295.673 122.826L296.552 122.676C298.528 128.772 302.669 133.935 308.194 137.192L307.827 138.07C307.998 138.425 308.06 138.821 308.007 139.211C307.503 140.359 306.892 141.458 306.179 142.49C305.788 143.006 305.427 143.544 305.097 144.102C305.042 144.205 304.977 144.347 304.916 144.478C304.889 144.537 304.863 144.594 304.839 144.644C304.44 145.304 304.451 146.134 304.868 146.784C305.286 147.433 306.037 147.789 306.805 147.701C307.573 147.614 308.224 147.098 308.484 146.371L308.487 146.367V146.363C308.51 146.316 308.536 146.264 308.563 146.211C308.625 146.087 308.691 145.954 308.737 145.85C308.966 145.246 309.161 144.629 309.319 144.003C309.668 142.728 310.194 141.509 310.882 140.381C311.123 140.156 311.426 140.008 311.753 139.957L312.209 139.131C318.203 141.433 324.835 141.45 330.84 139.179C330.905 139.294 330.999 139.463 331.084 139.617C331.166 139.765 331.24 139.899 331.272 139.954C331.684 140.019 332.054 140.244 332.302 140.578C332.874 141.66 333.338 142.796 333.688 143.968C333.847 144.595 334.043 145.212 334.274 145.816C334.322 145.925 334.392 146.068 334.457 146.198C334.48 146.245 334.503 146.291 334.523 146.333C334.784 147.059 335.434 147.574 336.201 147.662C336.968 147.75 337.718 147.396 338.137 146.748C338.555 146.1 338.569 145.271 338.173 144.61C338.151 144.563 338.126 144.511 338.1 144.456C338.036 144.322 337.966 144.174 337.908 144.067C337.579 143.511 337.218 142.975 336.826 142.46C336.126 141.454 335.527 140.382 335.036 139.26C334.93 138.858 334.986 138.431 335.192 138.07Z" fill="#326CE5"/>
<path fill-rule="evenodd" clip-rule="evenodd" d="M364.726 84.8402L373.832 124.064V124.065C374.293 126.124 373.793 128.279 372.47 129.931L346.969 161.387C345.614 163.024 343.594 163.978 341.459 163.991L300.549 164C298.413 163.987 296.393 163.032 295.039 161.393L269.529 129.94C269.385 129.762 269.252 129.578 269.127 129.388C268.101 127.816 267.757 125.901 268.171 124.074L277.262 84.8483C277.759 82.7937 279.159 81.0683 281.076 80.1473L317.933 62.6868C319.868 61.7711 322.117 61.7711 324.052 62.6868L360.913 80.1368C362.83 81.0587 364.23 82.785 364.726 84.8402ZM369.187 126.719C369.285 126.451 369.364 126.178 369.426 125.9V125.901C369.631 124.993 369.63 124.051 369.425 123.142L361.078 87.1905C360.623 85.3071 359.341 83.7251 357.583 82.88L323.797 66.8838C322.023 66.0445 319.962 66.0445 318.189 66.8838L284.407 82.8871C282.65 83.7315 281.367 85.313 280.912 87.1962L272.579 123.149C272.373 124.057 272.372 124.999 272.577 125.908C272.637 126.185 272.715 126.458 272.812 126.725C272.975 127.18 273.191 127.615 273.455 128.02C273.569 128.195 273.692 128.364 273.822 128.527L297.205 157.354C297.293 157.463 297.389 157.563 297.486 157.664C297.501 157.68 297.516 157.695 297.531 157.711C297.898 158.098 298.313 158.438 298.765 158.724C299.336 159.081 299.959 159.35 300.612 159.521C301.147 159.667 301.7 159.742 302.255 159.746H302.619L339.752 159.737C339.978 159.736 340.203 159.723 340.428 159.698C340.75 159.662 341.068 159.602 341.381 159.518C341.605 159.459 341.826 159.388 342.043 159.307C342.213 159.245 342.38 159.177 342.544 159.102C342.787 158.986 343.023 158.856 343.25 158.712C343.839 158.345 344.363 157.885 344.803 157.351L345.514 156.471L368.176 128.518C368.611 127.977 368.952 127.37 369.187 126.719Z" fill="white"/>
<path fill-rule="evenodd" clip-rule="evenodd" d="M355.038 120.697L355.038 120.697C354.906 120.664 354.766 120.629 354.658 120.609C354.017 120.521 353.372 120.47 352.726 120.455C351.505 120.375 350.295 120.178 349.112 119.865C348.747 119.66 348.446 119.359 348.243 118.994L347.429 118.759C348.299 112.437 346.806 106.017 343.233 100.718C343.336 100.625 343.484 100.493 343.621 100.372L343.621 100.371C343.762 100.247 343.89 100.132 343.947 100.081C343.919 99.6676 344.055 99.2601 344.325 98.9454C345.253 98.1521 346.257 97.4505 347.322 96.8507C347.898 96.5592 348.457 96.2347 348.996 95.8789C349.079 95.8178 349.181 95.7339 349.279 95.653C349.335 95.607 349.39 95.562 349.439 95.5227C350.093 95.1086 350.451 94.3602 350.363 93.5946C350.275 92.8291 349.756 92.1805 349.026 91.9238C348.295 91.6671 347.482 91.8473 346.93 92.3879C346.896 92.4149 346.858 92.4441 346.819 92.4744C346.703 92.5645 346.575 92.6637 346.483 92.7427C346.012 93.1837 345.568 93.6516 345.152 94.1438C344.328 95.0446 343.418 95.8635 342.435 96.589C342.048 96.7456 341.625 96.7914 341.213 96.7211L340.446 97.2659C336.034 92.6591 330.091 89.8023 323.721 89.226C323.704 88.9843 323.683 88.565 323.674 88.3802L323.672 88.3311C323.33 88.0951 323.094 87.7355 323.015 87.3289C322.972 86.1123 323.048 84.8944 323.243 83.6925C323.371 83.0631 323.463 82.4269 323.517 81.7869C323.521 81.6854 323.519 81.5549 323.517 81.4286V81.4284V81.4283V81.4281V81.428V81.4278V81.4277V81.4277V81.4276V81.4276V81.4275V81.4274V81.4274V81.4273C323.515 81.3533 323.514 81.2808 323.514 81.2165C323.591 80.452 323.225 79.7102 322.569 79.3042C321.913 78.8982 321.083 78.8986 320.427 79.3052C319.772 79.7119 319.406 80.4539 319.484 81.2184C319.484 81.2284 319.485 81.2382 319.486 81.248C319.488 81.2567 319.489 81.2655 319.489 81.2744C319.488 81.3256 319.487 81.38 319.486 81.4352L319.486 81.4361C319.483 81.5599 319.48 81.687 319.484 81.7874C319.539 82.4278 319.631 83.0645 319.759 83.6944C319.952 84.8961 320.027 86.1137 319.983 87.3299C319.869 87.7303 319.642 88.0898 319.329 88.3663L319.282 89.2146C318.056 89.3153 316.839 89.5014 315.639 89.7717C310.599 90.9048 306.015 93.5105 302.474 97.2545C302.229 97.0863 301.986 96.915 301.746 96.7405C301.347 96.8592 300.918 96.8177 300.549 96.6251C299.566 95.901 298.656 95.0832 297.833 94.1833C297.418 93.6913 296.975 93.2235 296.507 92.7821C296.423 92.7107 296.309 92.6216 296.201 92.5375C296.151 92.4985 296.103 92.4605 296.059 92.4259C295.659 92.1053 295.167 91.9205 294.654 91.8986C294.036 91.8665 293.44 92.1293 293.049 92.6064C292.369 93.5594 292.59 94.8798 293.544 95.5616L293.575 95.5835C293.607 95.6088 293.639 95.6359 293.673 95.6635L293.673 95.6636C293.782 95.753 293.898 95.8491 293.992 95.9169C294.529 96.2728 295.087 96.5976 295.662 96.8897C296.727 97.4895 297.731 98.1913 298.659 98.9853C298.9 99.3254 299.04 99.7259 299.064 100.141L299.709 100.715C296.146 106.033 294.682 112.473 295.598 118.799L294.754 119.043C294.534 119.393 294.238 119.689 293.888 119.911C292.706 120.225 291.497 120.423 290.276 120.503C289.63 120.518 288.984 120.569 288.343 120.658C288.2 120.684 288.005 120.733 287.843 120.773L287.843 120.773L287.805 120.782L287.787 120.786L287.759 120.795C286.998 120.894 286.359 121.414 286.11 122.136C285.86 122.859 286.044 123.659 286.583 124.203C287.122 124.746 287.925 124.939 288.654 124.701L288.684 124.696C288.69 124.695 288.696 124.693 288.702 124.69L288.702 124.69C288.709 124.688 288.715 124.685 288.722 124.684C288.783 124.67 288.849 124.656 288.916 124.642L288.916 124.642C289.033 124.617 289.151 124.592 289.244 124.567C289.859 124.372 290.462 124.142 291.051 123.878C292.186 123.423 293.362 123.079 294.564 122.85C294.981 122.875 295.382 123.016 295.722 123.257L296.601 123.107C298.573 129.169 302.706 134.302 308.221 137.54L307.854 138.414C308.025 138.766 308.088 139.161 308.034 139.548C307.532 140.69 306.921 141.782 306.211 142.808C305.82 143.321 305.459 143.856 305.13 144.41C305.079 144.505 305.02 144.633 304.964 144.754C304.931 144.824 304.9 144.892 304.871 144.95C304.475 145.607 304.487 146.431 304.904 147.076C305.321 147.72 306.069 148.074 306.834 147.987C307.6 147.9 308.249 147.389 308.51 146.668L308.513 146.664V146.659C308.539 146.606 308.569 146.547 308.599 146.487L308.599 146.486L308.6 146.486L308.6 146.486C308.659 146.369 308.72 146.247 308.762 146.15C308.992 145.549 309.186 144.936 309.344 144.313C309.692 143.046 310.217 141.833 310.904 140.712C311.144 140.487 311.447 140.34 311.773 140.29L312.23 139.468C318.211 141.757 324.83 141.773 330.823 139.515C330.886 139.627 330.976 139.788 331.058 139.937L331.058 139.937L331.061 139.941L331.061 139.942C331.145 140.094 331.222 140.231 331.253 140.286C331.665 140.352 332.034 140.575 332.282 140.908C332.853 141.984 333.316 143.113 333.666 144.279C333.825 144.902 334.02 145.515 334.25 146.116C334.298 146.225 334.369 146.366 334.433 146.495L334.433 146.496L334.475 146.579L334.5 146.63C334.76 147.351 335.409 147.864 336.174 147.951C336.94 148.039 337.689 147.687 338.106 147.043C338.524 146.399 338.538 145.574 338.142 144.917L338.126 144.883L338.1 144.829L338.063 144.751L338.063 144.751C338.002 144.621 337.935 144.48 337.88 144.377C337.551 143.824 337.19 143.291 336.799 142.779C336.101 141.779 335.503 140.713 335.013 139.597C334.907 139.198 334.962 138.773 335.168 138.414C335.039 138.152 334.927 137.882 334.832 137.605C340.365 134.341 344.499 129.168 346.447 123.069C346.708 123.11 347.162 123.189 347.309 123.219C347.616 122.939 348.02 122.79 348.436 122.802C349.638 123.031 350.815 123.375 351.95 123.831C352.539 124.097 353.142 124.328 353.758 124.525C353.849 124.549 353.965 124.572 354.079 124.595C354.148 124.608 354.216 124.622 354.279 124.636C354.286 124.638 354.293 124.64 354.299 124.643C354.306 124.645 354.312 124.647 354.318 124.649L354.347 124.653C355.076 124.891 355.878 124.698 356.417 124.155C356.956 123.612 357.139 122.812 356.891 122.09C356.642 121.368 356.004 120.848 355.244 120.747C355.182 120.733 355.111 120.715 355.038 120.697ZM336.099 100.329L327.487 106.403L327.457 106.389C326.928 106.772 326.231 106.836 325.641 106.554C325.051 106.272 324.664 105.691 324.634 105.041L324.625 105.036L324.026 94.5376C328.579 95.1 332.821 97.135 336.098 100.329H336.099ZM323.117 111.837H319.877L317.856 114.339L318.58 117.466L321.499 118.862L324.41 117.468L325.132 114.343L323.117 111.837ZM316.828 94.9052C317.537 94.7463 318.255 94.6236 318.978 94.5376L318.378 105.052L318.334 105.073C318.307 105.724 317.922 106.306 317.332 106.589C316.743 106.873 316.045 106.81 315.516 106.428L315.499 106.437L306.832 100.323C309.591 97.6256 313.053 95.749 316.828 94.9052ZM311.602 111.294L303.689 104.253V104.253C301.275 108.162 300.239 112.76 300.744 117.32L310.887 114.408L310.895 114.374C311.527 114.202 312.013 113.699 312.159 113.063C312.305 112.428 312.087 111.764 311.593 111.336L311.602 111.294ZM314.283 122.957L310.253 132.645C306.385 130.182 303.442 126.518 301.881 122.221L312.281 120.463L312.299 120.486C312.414 120.464 312.53 120.454 312.647 120.455C313.24 120.464 313.788 120.766 314.111 121.261C314.433 121.755 314.487 122.377 314.253 122.918L314.283 122.957ZM314.809 134.835C318.471 136.075 322.408 136.276 326.179 135.416V135.417C326.88 135.258 327.563 135.068 328.229 134.847L323.101 125.631H323.063C322.752 125.059 322.151 124.702 321.497 124.703C320.843 124.703 320.242 125.061 319.932 125.634H319.924L314.809 134.835ZM332.787 132.684L328.716 122.897L328.728 122.88C328.353 122.01 328.732 121.001 329.589 120.589C329.801 120.485 330.033 120.426 330.269 120.413C330.406 120.407 330.543 120.417 330.677 120.443L330.695 120.421L341.188 122.185C339.639 126.517 336.683 130.211 332.787 132.685V132.684ZM342.289 117.285L342.289 117.286L342.289 117.286C342.289 117.286 342.289 117.286 342.289 117.285ZM332.095 114.364L342.289 117.285C342.729 112.73 341.663 108.156 339.254 104.257L331.385 111.264L331.389 111.284C330.896 111.713 330.68 112.375 330.825 113.01C330.971 113.645 331.455 114.148 332.086 114.322L332.095 114.364Z" fill="white"/>
<rect x="65" y="52" width="84" height="145" fill="#F1F1F1"/>
<rect x="149" y="52" width="57" height="145" fill="#DBDBDB"/>
<rect x="71" y="57" width="71" height="6" fill="#DBDBDB"/>
<path d="M65 70H135.475C136.869 70 138 71.1526 138 72.5745V78.4255C138 79.8474 136.869 81 135.475 81H65V70Z" fill="white"/>
<rect x="130" y="71" width="3" height="9" rx="1.5" fill="#F1F1F1"/>
<rect x="124" y="71" width="3" height="9" rx="1.5" fill="#F1F1F1"/>
<rect x="118" y="71" width="3" height="9" rx="1.5" fill="#F1F1F1"/>
<rect x="112" y="71" width="3" height="9" rx="1.5" fill="#F1F1F1"/>
<rect x="106" y="71" width="3" height="9" rx="1.5" fill="#F1F1F1"/>
<rect x="100" y="71" width="3" height="9" rx="1.5" fill="#F1F1F1"/>
<rect x="94" y="71" width="3" height="9" rx="1.5" fill="#F1F1F1"/>
<rect x="89" y="71" width="3" height="9" rx="1.5" fill="#F1F1F1"/>
<rect x="83" y="71" width="3" height="9" rx="1.5" fill="#F1F1F1"/>
<rect x="77" y="71" width="3" height="9" rx="1.5" fill="#F1F1F1"/>
<rect x="65" y="70" width="4" height="11" fill="#DBDBDB"/>
<path d="M70.5 73C70.7761 73 71 72.7761 71 72.5C71 72.2239 70.7761 72 70.5 72C70.2239 72 70 72.2239 70 72.5C70 72.7761 70.2239 73 70.5 73Z" fill="#AE95F8"/>
<path d="M70.5 75C70.7761 75 71 74.7761 71 74.5C71 74.2239 70.7761 74 70.5 74C70.2239 74 70 74.2239 70 74.5C70 74.7761 70.2239 75 70.5 75Z" fill="#7FE3DE"/>
<path d="M70.5 78C70.7761 78 71 77.7761 71 77.5C71 77.2239 70.7761 77 70.5 77C70.2239 77 70 77.2239 70 77.5C70 77.7761 70.2239 78 70.5 78Z" fill="#F7D999"/>
<path d="M65 87H135.475C136.869 87 138 88.1526 138 89.5745V95.4255C138 96.8474 136.869 98 135.475 98H65V87V87Z" fill="white"/>
<rect x="130" y="88" width="3" height="9" rx="1.5" fill="#F1F1F1"/>
<rect x="124" y="88" width="3" height="9" rx="1.5" fill="#F1F1F1"/>
<rect x="118" y="88" width="3" height="9" rx="1.5" fill="#F1F1F1"/>
<rect x="112" y="88" width="3" height="9" rx="1.5" fill="#F1F1F1"/>
<rect x="106" y="88" width="3" height="9" rx="1.5" fill="#F1F1F1"/>
<rect x="100" y="88" width="3" height="9" rx="1.5" fill="#F1F1F1"/>
<rect x="94" y="88" width="3" height="9" rx="1.5" fill="#F1F1F1"/>
<rect x="89" y="88" width="3" height="9" rx="1.5" fill="#F1F1F1"/>
<rect x="83" y="88" width="3" height="9" rx="1.5" fill="#F1F1F1"/>
<rect x="77" y="88" width="3" height="9" rx="1.5" fill="#F1F1F1"/>
<rect x="65" y="87" width="4" height="11" fill="#DBDBDB"/>
<path d="M70.5 89C70.7761 89 71 88.7761 71 88.5C71 88.2239 70.7761 88 70.5 88C70.2239 88 70 88.2239 70 88.5C70 88.7761 70.2239 89 70.5 89Z" fill="#AE95F8"/>
<path d="M70.5 91C70.7761 91 71 90.7761 71 90.5C71 90.2239 70.7761 90 70.5 90C70.2239 90 70 90.2239 70 90.5C70 90.7761 70.2239 91 70.5 91Z" fill="#7FE3DE"/>
<path d="M70.5 94C70.7761 94 71 93.7761 71 93.5C71 93.2239 70.7761 93 70.5 93C70.2239 93 70 93.2239 70 93.5C70 93.7761 70.2239 94 70.5 94Z" fill="#F7D999"/>
<path d="M65 103H135.475C136.869 103 138 104.153 138 105.574V111.426C138 112.847 136.869 114 135.475 114H65V103V103Z" fill="white"/>
<rect x="130" y="104" width="3" height="9" rx="1.5" fill="#F1F1F1"/>
<rect x="124" y="104" width="3" height="9" rx="1.5" fill="#F1F1F1"/>
<rect x="118" y="104" width="3" height="9" rx="1.5" fill="#F1F1F1"/>
<rect x="112" y="104" width="3" height="9" rx="1.5" fill="#F1F1F1"/>
<rect x="106" y="104" width="3" height="9" rx="1.5" fill="#F1F1F1"/>
<rect x="100" y="104" width="3" height="9" rx="1.5" fill="#F1F1F1"/>
<rect x="94" y="104" width="3" height="9" rx="1.5" fill="#F1F1F1"/>
<rect x="89" y="104" width="3" height="9" rx="1.5" fill="#F1F1F1"/>
<rect x="83" y="104" width="3" height="9" rx="1.5" fill="#F1F1F1"/>
<rect x="77" y="104" width="3" height="9" rx="1.5" fill="#F1F1F1"/>
<rect x="65" y="103" width="4" height="11" fill="#DBDBDB"/>
<path d="M70.5 105C70.7761 105 71 104.776 71 104.5C71 104.224 70.7761 104 70.5 104C70.2239 104 70 104.224 70 104.5C70 104.776 70.2239 105 70.5 105Z" fill="#AE95F8"/>
<path d="M70.5 108C70.7761 108 71 107.776 71 107.5C71 107.224 70.7761 107 70.5 107C70.2239 107 70 107.224 70 107.5C70 107.776 70.2239 108 70.5 108Z" fill="#7FE3DE"/>
<path d="M70.5 110C70.7761 110 71 109.776 71 109.5C71 109.224 70.7761 109 70.5 109C70.2239 109 70 109.224 70 109.5C70 109.776 70.2239 110 70.5 110Z" fill="#F7D999"/>
<path d="M65 119H135.475C136.869 119 138 120.153 138 121.574V127.426C138 128.847 136.869 130 135.475 130H65V119Z" fill="white"/>
<rect x="130" y="120" width="3" height="9" rx="1.5" fill="#F1F1F1"/>
<rect x="124" y="120" width="3" height="9" rx="1.5" fill="#F1F1F1"/>
<rect x="118" y="120" width="3" height="9" rx="1.5" fill="#F1F1F1"/>
<rect x="112" y="120" width="3" height="9" rx="1.5" fill="#F1F1F1"/>
<rect x="106" y="120" width="3" height="9" rx="1.5" fill="#F1F1F1"/>
<rect x="100" y="120" width="3" height="9" rx="1.5" fill="#F1F1F1"/>
<rect x="94" y="120" width="3" height="9" rx="1.5" fill="#F1F1F1"/>
<rect x="89" y="120" width="3" height="9" rx="1.5" fill="#F1F1F1"/>
<rect x="83" y="120" width="3" height="9" rx="1.5" fill="#F1F1F1"/>
<rect x="77" y="120" width="3" height="9" rx="1.5" fill="#F1F1F1"/>
<rect x="65" y="119" width="4" height="11" fill="#DBDBDB"/>
<path d="M70.5 121C70.7761 121 71 120.776 71 120.5C71 120.224 70.7761 120 70.5 120C70.2239 120 70 120.224 70 120.5C70 120.776 70.2239 121 70.5 121Z" fill="#AE95F8"/>
<path d="M70.5 124C70.7761 124 71 123.776 71 123.5C71 123.224 70.7761 123 70.5 123C70.2239 123 70 123.224 70 123.5C70 123.776 70.2239 124 70.5 124Z" fill="#7FE3DE"/>
<path d="M70.5 127C70.7761 127 71 126.776 71 126.5C71 126.224 70.7761 126 70.5 126C70.2239 126 70 126.224 70 126.5C70 126.776 70.2239 127 70.5 127Z" fill="#F7D999"/>
<path d="M65 135H135.475C136.869 135 138 136.153 138 137.574V143.426C138 144.847 136.869 146 135.475 146H65V135Z" fill="white"/>
<rect x="130" y="136" width="3" height="9" rx="1.5" fill="#F1F1F1"/>
<rect x="124" y="136" width="3" height="9" rx="1.5" fill="#F1F1F1"/>
<rect x="118" y="136" width="3" height="9" rx="1.5" fill="#F1F1F1"/>
<rect x="112" y="136" width="3" height="9" rx="1.5" fill="#F1F1F1"/>
<rect x="106" y="136" width="3" height="9" rx="1.5" fill="#F1F1F1"/>
<rect x="100" y="136" width="3" height="9" rx="1.5" fill="#F1F1F1"/>
<rect x="94" y="136" width="3" height="9" rx="1.5" fill="#F1F1F1"/>
<rect x="89" y="136" width="3" height="9" rx="1.5" fill="#F1F1F1"/>
<rect x="83" y="136" width="3" height="9" rx="1.5" fill="#F1F1F1"/>
<rect x="77" y="136" width="3" height="9" rx="1.5" fill="#F1F1F1"/>
<rect x="65" y="135" width="4" height="11" fill="#DBDBDB"/>
<path d="M70.5 138C70.7761 138 71 137.776 71 137.5C71 137.224 70.7761 137 70.5 137C70.2239 137 70 137.224 70 137.5C70 137.776 70.2239 138 70.5 138Z" fill="#AE95F8"/>
<path d="M70.5 140C70.7761 140 71 139.776 71 139.5C71 139.224 70.7761 139 70.5 139C70.2239 139 70 139.224 70 139.5C70 139.776 70.2239 140 70.5 140Z" fill="#7FE3DE"/>
<path d="M70.5 143C70.7761 143 71 142.776 71 142.5C71 142.224 70.7761 142 70.5 142C70.2239 142 70 142.224 70 142.5C70 142.776 70.2239 143 70.5 143Z" fill="#F7D999"/>
<path d="M65 152H135.475C136.869 152 138 153.153 138 154.574V160.426C138 161.847 136.869 163 135.475 163H65V152Z" fill="white"/>
<rect x="130" y="153" width="3" height="9" rx="1.5" fill="#F1F1F1"/>
<rect x="124" y="153" width="3" height="9" rx="1.5" fill="#F1F1F1"/>
<rect x="118" y="153" width="3" height="9" rx="1.5" fill="#F1F1F1"/>
<rect x="112" y="153" width="3" height="9" rx="1.5" fill="#F1F1F1"/>
<rect x="106" y="153" width="3" height="9" rx="1.5" fill="#F1F1F1"/>
<rect x="100" y="153" width="3" height="9" rx="1.5" fill="#F1F1F1"/>
<rect x="94" y="153" width="3" height="9" rx="1.5" fill="#F1F1F1"/>
<rect x="89" y="153" width="3" height="9" rx="1.5" fill="#F1F1F1"/>
<rect x="83" y="153" width="3" height="9" rx="1.5" fill="#F1F1F1"/>
<rect x="77" y="153" width="3" height="9" rx="1.5" fill="#F1F1F1"/>
<rect x="65" y="152" width="4" height="11" fill="#DBDBDB"/>
<path d="M70.5 154C70.7761 154 71 153.776 71 153.5C71 153.224 70.7761 153 70.5 153C70.2239 153 70 153.224 70 153.5C70 153.776 70.2239 154 70.5 154Z" fill="#AE95F8"/>
<path d="M70.5 156C70.7761 156 71 155.776 71 155.5C71 155.224 70.7761 155 70.5 155C70.2239 155 70 155.224 70 155.5C70 155.776 70.2239 156 70.5 156Z" fill="#7FE3DE"/>
<path d="M70.5 159C70.7761 159 71 158.776 71 158.5C71 158.224 70.7761 158 70.5 158C70.2239 158 70 158.224 70 158.5C70 158.776 70.2239 159 70.5 159Z" fill="#F7D999"/>
<path d="M65 168H135.475C136.869 168 138 169.153 138 170.574V176.426C138 177.847 136.869 179 135.475 179H65V168Z" fill="white"/>
<rect x="130" y="169" width="3" height="9" rx="1.5" fill="#F1F1F1"/>
<rect x="124" y="169" width="3" height="9" rx="1.5" fill="#F1F1F1"/>
<rect x="118" y="169" width="3" height="9" rx="1.5" fill="#F1F1F1"/>
<rect x="112" y="169" width="3" height="9" rx="1.5" fill="#F1F1F1"/>
<rect x="106" y="169" width="3" height="9" rx="1.5" fill="#F1F1F1"/>
<rect x="100" y="169" width="3" height="9" rx="1.5" fill="#F1F1F1"/>
<rect x="94" y="169" width="3" height="9" rx="1.5" fill="#F1F1F1"/>
<rect x="89" y="169" width="3" height="9" rx="1.5" fill="#F1F1F1"/>
<rect x="83" y="169" width="3" height="9" rx="1.5" fill="#F1F1F1"/>
<rect x="77" y="169" width="3" height="9" rx="1.5" fill="#F1F1F1"/>
<rect x="65" y="168" width="4" height="11" fill="#DBDBDB"/>
<path d="M70.5 170C70.7761 170 71 169.776 71 169.5C71 169.224 70.7761 169 70.5 169C70.2239 169 70 169.224 70 169.5C70 169.776 70.2239 170 70.5 170Z" fill="#AE95F8"/>
<path d="M70.5 173C70.7761 173 71 172.776 71 172.5C71 172.224 70.7761 172 70.5 172C70.2239 172 70 172.224 70 172.5C70 172.776 70.2239 173 70.5 173Z" fill="#7FE3DE"/>
<path d="M70.5 175C70.7761 175 71 174.776 71 174.5C71 174.224 70.7761 174 70.5 174C70.2239 174 70 174.224 70 174.5C70 174.776 70.2239 175 70.5 175Z" fill="#F7D999"/>
<path d="M172.75 111.728C172.198 111.728 171.75 112.176 171.75 112.728C171.75 113.281 172.198 113.728 172.75 113.728V111.728ZM252 112.728L242 106.955V118.502L252 112.728ZM172.75 113.728H243V111.728H172.75V113.728Z" fill="#979797"/>
<path d="M172 127.728L182 133.502V121.955L172 127.728ZM251.25 128.728C251.802 128.728 252.25 128.281 252.25 127.728C252.25 127.176 251.802 126.728 251.25 126.728V128.728ZM181 128.728H251.25V126.728H181V128.728Z" fill="#979797"/>
</svg>
