<svg version="1" xmlns="http://www.w3.org/2000/svg" width="2465.333" height="2465.333" viewBox="0 0 1849.000000 1849.000000"><path d="M496 925c-235.1 470.3-427.3 855-427 855 .3 0 192.8-48 427.8-106.7L924 1566.5l427.1 106.8c235 58.7 427.4 106.6 427.6 106.4.5-.6-3.8-7.9-5.7-9.5-.8-.8-.9-1-.2-.7.7.4-.4-2.8-2.6-7.2C1720.6 1662.4 924.5 70 924.1 70c-.3 0-193 384.8-428.1 855zm851 98.6c232.4 406.7 423.1 740.7 423.8 742.2l1.3 2.7-2-2.5c-1.1-1.4-191.8-287.2-423.8-635.2-232-348-422.1-632.6-422.5-632.5-.5.1-191.1 285.7-423.7 634.6-232.6 348.9-423.5 634.9-424.2 635.5-.8.7-.7.1.2-1.4.8-1.4 191.8-335.6 424.4-742.8C733.1 617.1 923.7 284 924 284c.3.1 190.6 332.9 423 739.6zm-5.3 209.6c229.3 286.7 420.4 525.8 424.7 531.3 5.8 7.3-104.8-102.7-417.3-415L924 924.5 498.3 1350c-234.1 234-423.2 422.3-420.2 418.5C97.6 1743.2 923.2 712 923.9 712c.5 0 188.5 234.6 417.8 521.2zm8 224.8c233.9 175.5 425.3 319.2 425.3 319.5 0 .3-191.5-95.2-425.5-212.2L924 1352.5l-424.2 212c-233.4 116.6-424.6 212.1-425 212.3-.5.2-.8.1-.8-.2 0-.6 849-637.6 849.8-637.6.3 0 191.9 143.6 425.9 319z"/></svg>